<svg xmlns="http://www.w3.org/2000/svg" width="512" height="512" viewBox="0 0 512 512" fill="none">
  <!-- Background rounded square -->
  <rect width="512" height="512" rx="96" fill="url(#gradient)"/>
  
  <!-- Droplets icon (simplified from Lucide) -->
  <g transform="translate(96, 96) scale(1.25)">
    <!-- Main drop -->
    <path d="M160 288c0 52.8-43.2 96-96 96s-96-43.2-96-96c0-80 96-192 96-192s96 112 96 192z" 
          transform="translate(96, 32)" 
          fill="white" 
          fill-opacity="0.95"/>
    <!-- Secondary drop -->
    <path d="M96 224c0 35.2-28.8 64-64 64s-64-28.8-64-64c0-53.3 64-128 64-128s64 74.7 64 128z" 
          transform="translate(32, 96)" 
          fill="white" 
          fill-opacity="0.7"/>
  </g>
  
  <defs>
    <linearGradient id="gradient" x1="0" y1="0" x2="512" y2="512" gradientUnits="userSpaceOnUse">
      <stop offset="0%" stop-color="#667eea"/>
      <stop offset="100%" stop-color="#764ba2"/>
    </linearGradient>
  </defs>
</svg>
